<svg xmlns="http://www.w3.org/2000/svg" viewBox="0 0 500 500"><g id="freepik--Shadow--inject-79"><ellipse id="freepik--path--inject-79" cx="250" cy="416.24" rx="193.89" ry="11.32" style="fill:#f5f5f5"></ellipse></g><g id="freepik--Boxes--inject-79"><path d="M162,387V249.92a29,29,0,0,0-5.21-16.59L152,226.47h85.1l4.79,6.86a29,29,0,0,1,5.21,16.59V385.7" style="fill:none;stroke:#263238;stroke-linecap:round;stroke-linejoin:round;stroke-width:6px"></path><circle cx="342.85" cy="408.24" r="8.81" style="fill:#263238"></circle><path d="M347.26,408.24a4.41,4.41,0,1,0-4.41,4.4A4.4,4.4,0,0,0,347.26,408.24Z" style="fill:#fff;opacity:0.4;isolation:isolate"></path><path d="M341.79,410.2h0a3.36,3.36,0,0,1-3.15-2.2l-5.19-14.22h11.69v13.07A3.35,3.35,0,0,1,341.79,410.2Z" style="fill:#263238"></path><path d="M341.79,410.2h0a3.36,3.36,0,0,1-3.15-2.2l-5.19-14.22h11.69v13.07A3.35,3.35,0,0,1,341.79,410.2Z" style="fill:#fff;opacity:0.2;isolation:isolate"></path><circle cx="244.85" cy="408.24" r="8.81" style="fill:#263238"></circle><path d="M249.26,408.24a4.41,4.41,0,1,0-4.41,4.4A4.4,4.4,0,0,0,249.26,408.24Z" style="fill:#fff;opacity:0.4;isolation:isolate"></path><path d="M243.79,410.2h0a3.36,3.36,0,0,1-3.15-2.2l-5.19-14.22h11.69v13.07A3.35,3.35,0,0,1,243.79,410.2Z" style="fill:#263238"></path><path d="M243.79,410.2h0a3.36,3.36,0,0,1-3.15-2.2l-5.19-14.22h11.69v13.07A3.35,3.35,0,0,1,243.79,410.2Z" style="fill:#fff;opacity:0.2;isolation:isolate"></path><path d="M358,383.53v8.32a2.81,2.81,0,0,1-2.81,2.81H158.26a2.81,2.81,0,0,1-2.81-2.81v-8.32Z" style="fill:#263238"></path><path d="M358,383.53v8.32a2.81,2.81,0,0,1-2.81,2.81H158.26a2.81,2.81,0,0,1-2.81-2.81v-8.32Z" style="fill:#fff;opacity:0.4;isolation:isolate"></path><path d="M288,383.53v8.32a2.81,2.81,0,0,1-2.81,2.81H158.26a2.81,2.81,0,0,1-2.81-2.81v-8.32Z" style="fill:#fff;opacity:0.2;isolation:isolate"></path><circle cx="271.85" cy="408.24" r="8.81" style="fill:#263238"></circle><path d="M276.26,408.24a4.41,4.41,0,1,0-4.41,4.4A4.4,4.4,0,0,0,276.26,408.24Z" style="fill:#fff;opacity:0.6000000000000001;isolation:isolate"></path><path d="M270.79,410.2h0a3.36,3.36,0,0,1-3.15-2.2l-5.19-14.22h11.69v13.07A3.35,3.35,0,0,1,270.79,410.2Z" style="fill:#263238"></path><path d="M270.79,410.2h0a3.36,3.36,0,0,1-3.15-2.2l-5.19-14.22h11.69v13.07A3.35,3.35,0,0,1,270.79,410.2Z" style="fill:#fff;opacity:0.4;isolation:isolate"></path><circle cx="173.85" cy="408.24" r="8.81" style="fill:#263238"></circle><path d="M178.26,408.24a4.41,4.41,0,1,0-4.41,4.4A4.4,4.4,0,0,0,178.26,408.24Z" style="fill:#fff;opacity:0.6000000000000001;isolation:isolate"></path><path d="M172.79,410.2h0a3.36,3.36,0,0,1-3.15-2.2l-5.19-14.22h11.69v13.07A3.35,3.35,0,0,1,172.79,410.2Z" style="fill:#263238"></path><path d="M172.79,410.2h0a3.36,3.36,0,0,1-3.15-2.2l-5.19-14.22h11.69v13.07A3.35,3.35,0,0,1,172.79,410.2Z" style="fill:#fff;opacity:0.4;isolation:isolate"></path><rect x="179.84" y="318.98" width="93.25" height="64.55" style="fill:#7E57C2"></rect><rect x="179.84" y="318.98" width="93.25" height="64.55" style="fill:#fff;opacity:0.4;isolation:isolate"></rect><rect x="179.84" y="318.98" width="43.27" height="64.55" style="fill:#fff;opacity:0.2;isolation:isolate"></rect><rect x="212.69" y="369.88" width="7.25" height="9.23" rx="0.92" style="opacity:0.2;isolation:isolate"></rect><rect x="202.93" y="369.88" width="7.25" height="9.23" rx="0.92" style="opacity:0.2;isolation:isolate"></rect><rect x="247.77" y="318.98" width="5.27" height="6.73" style="opacity:0.4;isolation:isolate"></rect><rect x="231.15" y="346.54" width="36.3" height="8.44" style="opacity:0.2;isolation:isolate"></rect><rect x="182.66" y="322.34" width="12.41" height="12.41" style="opacity:0.2;isolation:isolate"></rect><rect x="189.36" y="254.43" width="93.25" height="64.55" style="fill:#7E57C2"></rect><rect x="189.36" y="254.43" width="93.25" height="64.55" style="opacity:0.4;isolation:isolate"></rect><rect x="189.36" y="254.43" width="43.27" height="64.55" style="fill:#fff;opacity:0.2;isolation:isolate"></rect><rect x="222.22" y="305.33" width="7.25" height="9.23" rx="0.92" style="opacity:0.2;isolation:isolate"></rect><rect x="212.46" y="305.33" width="7.25" height="9.23" rx="0.92" style="opacity:0.2;isolation:isolate"></rect><rect x="257.29" y="254.43" width="5.27" height="6.73" style="opacity:0.4;isolation:isolate"></rect><rect x="240.67" y="281.99" width="36.3" height="8.44" style="opacity:0.2;isolation:isolate"></rect><rect x="192.19" y="257.79" width="12.41" height="12.41" style="opacity:0.2;isolation:isolate"></rect><rect x="246.44" y="254.43" width="93.25" height="64.55" style="fill:#7E57C2"></rect><rect x="246.44" y="254.43" width="93.25" height="64.55" style="fill:#fff;opacity:0.4;isolation:isolate"></rect><rect x="246.44" y="254.43" width="43.27" height="64.55" style="fill:#fff;opacity:0.2;isolation:isolate"></rect><rect x="279.3" y="305.33" width="7.25" height="9.23" rx="0.92" style="opacity:0.2;isolation:isolate"></rect><rect x="269.54" y="305.33" width="7.25" height="9.23" rx="0.92" style="opacity:0.2;isolation:isolate"></rect><rect x="314.37" y="254.43" width="5.27" height="6.73" style="opacity:0.4;isolation:isolate"></rect><rect x="297.75" y="281.99" width="36.3" height="8.44" style="opacity:0.2;isolation:isolate"></rect><rect x="249.27" y="257.79" width="12.41" height="12.41" style="opacity:0.2;isolation:isolate"></rect><rect x="214.19" y="189.88" width="93.25" height="64.55" style="fill:#7E57C2"></rect><rect x="214.19" y="189.88" width="43.27" height="64.55" style="fill:#fff;opacity:0.2;isolation:isolate"></rect><rect x="247.04" y="240.78" width="7.25" height="9.23" rx="0.92" style="opacity:0.2;isolation:isolate"></rect><rect x="237.29" y="240.78" width="7.25" height="9.23" rx="0.92" style="opacity:0.2;isolation:isolate"></rect><rect x="282.12" y="189.88" width="5.27" height="6.73" style="opacity:0.4;isolation:isolate"></rect><rect x="265.5" y="217.44" width="36.3" height="8.44" style="opacity:0.2;isolation:isolate"></rect><rect x="217.01" y="193.24" width="12.41" height="12.41" style="opacity:0.2;isolation:isolate"></rect><rect x="239.18" y="318.98" width="93.25" height="64.55" style="fill:#263238"></rect><rect x="239.18" y="318.98" width="93.25" height="64.55" style="fill:#fff;opacity:0.2;isolation:isolate"></rect><rect x="239.18" y="318.98" width="43.27" height="64.55" style="fill:#fff;opacity:0.2;isolation:isolate"></rect><rect x="272.03" y="369.88" width="7.25" height="9.23" rx="0.92" style="opacity:0.2;isolation:isolate"></rect><rect x="262.27" y="369.88" width="7.25" height="9.23" rx="0.92" style="opacity:0.2;isolation:isolate"></rect><rect x="307.11" y="318.98" width="5.27" height="6.73" style="opacity:0.4;isolation:isolate"></rect><rect x="290.49" y="346.54" width="36.3" height="8.44" style="opacity:0.2;isolation:isolate"></rect><rect x="242" y="322.34" width="12.41" height="12.41" style="opacity:0.2;isolation:isolate"></rect></g></svg>